<?xml version="1.0" standalone="no"?>
<!DOCTYPE svg PUBLIC "-//W3C//DTD SVG 20010904//EN"
 "http://www.w3.org/TR/2001/REC-SVG-20010904/DTD/svg10.dtd">
<svg version="1.0" xmlns="http://www.w3.org/2000/svg"
 width="700.000000pt" height="700.000000pt" viewBox="0 0 700.000000 700.000000"
 preserveAspectRatio="xMidYMid meet">
<metadata>
Created by potrace 1.14, written by Peter Selinger 2001-2017
</metadata>
<g transform="translate(0.000000,700.000000) scale(0.100000,-0.100000)"
fill="#000000" stroke="none">
<path d="M3165 6545 c-930 -109 -1726 -596 -2240 -1370 -402 -606 -578 -1347
-489 -2066 60 -490 223 -934 489 -1335 489 -736 1246 -1218 2127 -1355 191
-30 580 -37 778 -15 1065 121 1962 747 2438 1701 489 980 414 2162 -193 3075
-121 182 -240 326 -400 485 -497 494 -1133 799 -1835 879 -163 19 -516 19
-675 1z m291 -954 c137 -26 238 -91 311 -199 59 -87 91 -196 103 -345 12 -159
30 -573 30 -710 0 -88 3 -107 15 -107 8 0 191 32 407 71 216 39 425 73 463 76
234 19 437 -104 506 -306 41 -117 39 -144 -75 -1021 -59 -448 -113 -842 -122
-874 -38 -153 -170 -299 -320 -356 -49 -18 -617 -123 -814 -151 -137 -19 -419
-15 -685 10 -132 13 -241 24 -241 24 -1 1 -72 394 -157 872 l-155 870 239
1070 c131 589 239 1071 239 1072 1 13 193 16 256 4z m-1002 -1973 c127 -698
368 -2066 369 -2103 2 -61 -20 -101 -66 -120 -18 -7 -154 -35 -302 -60 -257
-45 -272 -47 -307 -32 -21 9 -43 28 -52 46 -16 31 -376 2019 -376 2077 0 34
28 77 63 96 17 9 589 120 653 127 7 0 14 -14 18 -31z"/>
</g>
</svg>
