<?xml version="1.0" encoding="UTF-8" standalone="no"?>
<!DOCTYPE svg PUBLIC "-//W3C//DTD SVG 1.1//EN" "http://www.w3.org/Graphics/SVG/1.1/DTD/svg11.dtd">
<svg width="100%" height="100%" viewBox="0 0 80 80" version="1.1" xmlns="http://www.w3.org/2000/svg" xmlns:xlink="http://www.w3.org/1999/xlink" xml:space="preserve" xmlns:serif="http://www.serif.com/" style="fill-rule:evenodd;clip-rule:evenodd;stroke-linejoin:round;stroke-miterlimit:2;">
    <g id="icon-cite-times">
        <path d="M39.716,79.193C61.249,79.193 79.169,61.322 79.169,39.789C79.169,18.256 61.2,0.385 39.667,0.385C18.183,0.385 0.311,18.256 0.311,39.789C0.311,61.322 18.231,79.193 39.716,79.193Z" style="fill-rule:nonzero;"/>
        <g id="Regular-S">
            <path d="M41.67,35.712C41.67,40.857 45.48,44.935 50.31,44.935C52.543,44.935 54.582,44.061 56.087,42.483L56.596,42.483C55.431,46.051 52.082,48.672 48.344,49.91C47.689,50.128 47.228,50.323 46.961,50.59C46.669,50.881 46.524,51.221 46.524,51.633C46.524,52.531 47.203,53.138 48.174,53.138C48.757,53.138 49.145,53.041 50.019,52.75C52.592,51.852 54.946,50.347 56.766,48.454C59.363,45.76 60.989,42.143 60.989,37.872C60.989,30.615 56.378,26.44 51.014,26.44C45.699,26.44 41.67,30.493 41.67,35.712ZM18.491,35.712C18.491,40.857 22.302,44.935 27.132,44.935C29.364,44.935 31.427,44.061 32.908,42.483L33.442,42.483C32.228,46.051 28.903,48.672 25.166,49.91C24.51,50.128 24.025,50.323 23.782,50.59C23.467,50.881 23.37,51.221 23.37,51.633C23.37,52.531 24.001,53.138 24.971,53.138C25.578,53.138 25.967,53.041 26.84,52.75C29.413,51.852 31.767,50.347 33.588,48.454C36.184,45.76 37.786,42.143 37.786,37.872C37.786,30.615 33.199,26.44 27.811,26.44C22.496,26.44 18.491,30.493 18.491,35.712Z" style="fill:white;fill-rule:nonzero;"/>
        </g>
    </g>
</svg>
