<?xml version="1.0" encoding="UTF-8" standalone="no"?>
<!DOCTYPE svg PUBLIC "-//W3C//DTD SVG 1.1//EN" "http://www.w3.org/Graphics/SVG/1.1/DTD/svg11.dtd">
<svg width="100%" height="100%" viewBox="0 0 56 56" version="1.1" xmlns="http://www.w3.org/2000/svg" xmlns:xlink="http://www.w3.org/1999/xlink" xml:space="preserve" xmlns:serif="http://www.serif.com/" style="fill-rule:evenodd;clip-rule:evenodd;stroke-linejoin:round;stroke-miterlimit:2;">
    <g id="icon-cite-times-c">
        <path d="M27.723,55.272C42.742,55.272 55.24,42.808 55.24,27.789C55.24,12.771 42.708,0.306 27.689,0.306C12.705,0.306 0.24,12.771 0.24,27.789C0.24,42.808 12.739,55.272 27.723,55.272Z" style="fill:none;fill-rule:nonzero;"/>
        <g id="Regular-S">
            <path d="M29.67,23.712C29.67,28.857 33.48,32.935 38.31,32.935C40.543,32.935 42.582,32.061 44.087,30.483L44.596,30.483C43.431,34.051 40.082,36.672 36.344,37.91C35.689,38.128 35.228,38.323 34.961,38.59C34.669,38.881 34.524,39.221 34.524,39.633C34.524,40.531 35.203,41.138 36.174,41.138C36.757,41.138 37.145,41.041 38.019,40.75C40.592,39.852 42.946,38.347 44.766,36.454C47.363,33.76 48.989,30.143 48.989,25.872C48.989,18.615 44.378,14.44 39.014,14.44C33.699,14.44 29.67,18.493 29.67,23.712ZM6.491,23.712C6.491,28.857 10.302,32.935 15.132,32.935C17.364,32.935 19.427,32.061 20.908,30.483L21.442,30.483C20.228,34.051 16.903,36.672 13.166,37.91C12.51,38.128 12.025,38.323 11.782,38.59C11.467,38.881 11.37,39.221 11.37,39.633C11.37,40.531 12.001,41.138 12.971,41.138C13.578,41.138 13.967,41.041 14.84,40.75C17.413,39.852 19.767,38.347 21.588,36.454C24.184,33.76 25.786,30.143 25.786,25.872C25.786,18.615 21.199,14.44 15.811,14.44C10.496,14.44 6.491,18.493 6.491,23.712Z" style="fill-rule:nonzero;"/>
        </g>
    </g>
</svg>
