<?xml version="1.0" encoding="UTF-8" standalone="no"?>
<!DOCTYPE svg PUBLIC "-//W3C//DTD SVG 1.1//EN" "http://www.w3.org/Graphics/SVG/1.1/DTD/svg11.dtd">
<svg width="100%" height="100%" viewBox="0 0 323 162" version="1.1" xmlns="http://www.w3.org/2000/svg" xmlns:xlink="http://www.w3.org/1999/xlink" xml:space="preserve" xmlns:serif="http://www.serif.com/" style="fill-rule:evenodd;clip-rule:evenodd;stroke-linejoin:round;stroke-miterlimit:2;">
    <g id="recrec-logo">
        <g>
            <path d="M281.867,79.678L281.867,122.589C281.867,134.431 272.253,144.045 260.411,144.045L48.9,144.045L26.656,161.649L22.275,144.045L22.275,144.045C10.433,144.045 0.819,134.431 0.819,122.589L0.819,79.678C0.819,67.836 10.433,58.222 22.275,58.222L260.411,58.222C272.253,58.222 281.867,67.836 281.867,79.678Z" style="fill:rgb(24,70,163);"/>
            <path d="M68.303,90.424C68.303,93.795 67.791,96.594 66.768,98.821C65.745,101.048 64.15,103.064 61.983,104.87L69.476,128.705L52.774,128.705L47.176,108.481L45.099,108.481L45.099,128.705L29.932,128.705L29.932,72.638L50.878,72.638C56.897,72.638 61.306,74.052 64.104,76.881C66.903,79.71 68.303,84.225 68.303,90.424ZM47.447,99.001C49.012,99.001 50.125,98.55 50.787,97.647C51.449,96.744 51.78,95.104 51.78,92.726C51.78,90.349 51.449,88.694 50.787,87.761C50.125,86.828 49.042,86.361 47.537,86.361L45.099,86.361L45.099,99.001L47.447,99.001Z" style="fill:white;fill-rule:nonzero;"/>
            <path d="M90.422,97.286C88.857,97.286 87.834,97.812 87.353,98.866C86.871,99.919 86.63,101.529 86.63,103.696L94.485,103.696L94.485,101.529C94.485,98.7 93.131,97.286 90.422,97.286ZM90.784,84.375C96.983,84.375 101.422,85.865 104.101,88.844C106.779,91.824 108.118,96.082 108.118,101.619C108.118,102.342 107.908,105.592 107.486,111.37L86.901,111.37C86.901,115.884 88.978,118.142 93.131,118.142C95.117,118.142 98.999,117.449 104.778,116.065L106.042,127.26C100.986,128.825 95.93,129.608 90.874,129.608C84.674,129.608 79.919,127.576 76.609,123.514C73.298,119.451 71.643,113.928 71.643,106.946C71.643,91.899 78.023,84.375 90.784,84.375Z" style="fill:white;fill-rule:nonzero;"/>
            <path d="M130.238,97.557C128.493,97.557 127.319,98.354 126.717,99.949C126.115,101.544 125.814,104.027 125.814,107.398C125.814,110.768 126.1,113.206 126.672,114.711C127.244,116.216 128.447,116.968 130.283,116.968C132.119,116.968 134.512,116.637 137.461,115.975L139.086,127.531C134.933,128.916 131.231,129.608 127.981,129.608C122.263,129.608 117.944,127.682 115.025,123.83C112.106,119.977 110.646,114.59 110.646,107.669C110.646,100.747 112.151,95.134 115.16,90.83C118.17,86.527 122.534,84.375 128.252,84.375C132.525,84.375 136.377,85.097 139.808,86.542L138.183,99.814C134.692,98.309 132.044,97.557 130.238,97.557Z" style="fill:white;fill-rule:nonzero;"/>
            <path d="M181.249,90.424C181.249,93.795 180.737,96.594 179.714,98.821C178.691,101.048 177.096,103.064 174.929,104.87L182.423,128.705L165.72,128.705L160.122,108.481L158.046,108.481L158.046,128.705L142.878,128.705L142.878,72.638L163.824,72.638C169.843,72.638 174.252,74.052 177.051,76.881C179.85,79.71 181.249,84.225 181.249,90.424ZM160.393,99.001C161.958,99.001 163.072,98.55 163.734,97.647C164.396,96.744 164.727,95.104 164.727,92.726C164.727,90.349 164.396,88.694 163.734,87.761C163.072,86.828 161.988,86.361 160.483,86.361L158.046,86.361L158.046,99.001L160.393,99.001Z" style="fill:white;fill-rule:nonzero;"/>
            <path d="M203.369,97.286C201.804,97.286 200.781,97.812 200.299,98.866C199.818,99.919 199.577,101.529 199.577,103.696L207.432,103.696L207.432,101.529C207.432,98.7 206.077,97.286 203.369,97.286ZM203.73,84.375C209.929,84.375 214.368,85.865 217.047,88.844C219.725,91.824 221.065,96.082 221.065,101.619C221.065,102.342 220.854,105.592 220.433,111.37L199.848,111.37C199.848,115.884 201.924,118.142 206.077,118.142C208.064,118.142 211.946,117.449 217.724,116.065L218.988,127.26C213.932,128.825 208.876,129.608 203.82,129.608C197.621,129.608 192.866,127.576 189.555,123.514C186.245,119.451 184.59,113.928 184.59,106.946C184.59,91.899 190.97,84.375 203.73,84.375Z" style="fill:white;fill-rule:nonzero;"/>
            <path d="M243.184,97.557C241.439,97.557 240.265,98.354 239.663,99.949C239.061,101.544 238.76,104.027 238.76,107.398C238.76,110.768 239.046,113.206 239.618,114.711C240.19,116.216 241.394,116.968 243.23,116.968C245.065,116.968 247.458,116.637 250.407,115.975L252.032,127.531C247.879,128.916 244.178,129.608 240.927,129.608C235.209,129.608 230.891,127.682 227.971,123.83C225.052,119.977 223.593,114.59 223.593,107.669C223.593,100.747 225.097,95.134 228.107,90.83C231.116,86.527 235.48,84.375 241.198,84.375C245.472,84.375 249.324,85.097 252.755,86.542L251.129,99.814C247.638,98.309 244.99,97.557 243.184,97.557Z" style="fill:white;fill-rule:nonzero;"/>
        </g>
        <g>
            <path d="M272.186,6.068C293.296,2.298 313.496,16.376 317.266,37.486C321.037,58.596 306.959,78.796 285.849,82.566C264.739,86.337 244.539,72.259 240.769,51.149C236.998,30.039 251.076,9.839 272.186,6.068Z" style="fill:rgb(24,70,163);"/>
            <path d="M271.6,2.787C294.521,-1.307 316.454,13.978 320.548,36.9C324.642,59.821 309.356,81.754 286.435,85.848C263.514,89.941 241.581,74.656 237.487,51.735C233.393,28.814 248.679,6.881 271.6,2.787ZM272.186,6.068C251.076,9.839 236.998,30.039 240.769,51.149C244.539,72.259 264.739,86.337 285.849,82.566C306.959,78.796 321.037,58.596 317.266,37.486C313.496,16.376 293.296,2.298 272.186,6.068Z" style="fill:white;"/>
            <g>
                <path d="M265.772,42.125L257.858,43.539C257.027,43.687 256.473,44.482 256.621,45.313L261.123,70.517C261.272,71.349 262.066,71.902 262.897,71.754L269.28,70.614C270.099,70.467 270.65,69.694 270.523,68.873L270.342,67.712L265.772,42.125Z" style="fill:white;fill-rule:nonzero;"/>
                <path d="M294.305,33.049C290.506,33.728 284.068,34.878 284.068,34.878C284.068,34.878 284.106,32.979 283.69,24.756C283.337,17.768 278.309,17.185 275.227,17.735L269.218,44.716L273.129,66.614L278.767,67.105C281.356,67.331 283.965,67.214 286.524,66.757L293.821,65.454C296.672,64.945 298.864,62.643 299.239,59.772C300.281,51.776 301.368,43.45 301.792,40.17C302.514,34.573 298.106,32.37 294.305,33.049Z" style="fill:white;fill-rule:nonzero;"/>
            </g>
        </g>
    </g>
</svg>
