<?xml version="1.0" encoding="UTF-8" standalone="no"?>
<!DOCTYPE svg PUBLIC "-//W3C//DTD SVG 1.1//EN" "http://www.w3.org/Graphics/SVG/1.1/DTD/svg11.dtd">
<svg width="100%" height="100%" viewBox="0 0 323 162" version="1.1" xmlns="http://www.w3.org/2000/svg" xmlns:xlink="http://www.w3.org/1999/xlink" xml:space="preserve" xmlns:serif="http://www.serif.com/" style="fill-rule:evenodd;clip-rule:evenodd;stroke-linejoin:round;stroke-miterlimit:2;">
    <g id="recrec-logo">
        <g>
            <path d="M281.867,79.678L281.867,122.589C281.867,134.431 272.253,144.045 260.411,144.045L48.9,144.045L26.656,161.649L22.275,144.045L22.275,144.045C10.433,144.045 0.819,134.431 0.819,122.589L0.819,79.678C0.819,67.836 10.433,58.222 22.275,58.222L260.411,58.222C272.253,58.222 281.867,67.836 281.867,79.678Z" style="fill:rgb(24,70,163);"/>
            <g transform="matrix(90.2849,0,0,90.2849,252.755,128.705)">
            </g>
            <text x="25.959px" y="128.705px" style="font-family:'PassionOne-Regular', 'Passion One';font-size:90.285px;fill:white;">R<tspan x="69.657px 108.66px 138.905px 182.603px 221.606px " y="128.705px 128.705px 128.705px 128.705px 128.705px ">ecRec</tspan></text>
        </g>
        <g>
            <path d="M272.186,6.068C293.296,2.298 313.496,16.376 317.266,37.486C321.037,58.596 306.959,78.796 285.849,82.566C264.739,86.337 244.539,72.259 240.769,51.149C236.998,30.039 251.076,9.839 272.186,6.068Z" style="fill:rgb(24,70,163);"/>
            <path d="M271.6,2.787C294.521,-1.307 316.454,13.978 320.548,36.9C324.642,59.821 309.356,81.754 286.435,85.848C263.514,89.941 241.581,74.656 237.487,51.735C233.393,28.814 248.679,6.881 271.6,2.787ZM272.186,6.068C251.076,9.839 236.998,30.039 240.769,51.149C244.539,72.259 264.739,86.337 285.849,82.566C306.959,78.796 321.037,58.596 317.266,37.486C313.496,16.376 293.296,2.298 272.186,6.068Z" style="fill:white;"/>
            <g>
                <path d="M265.772,42.125L257.858,43.539C257.027,43.687 256.473,44.482 256.621,45.313L261.123,70.517C261.272,71.349 262.066,71.902 262.897,71.754L269.28,70.614C270.099,70.467 270.65,69.694 270.523,68.873L270.342,67.712L265.772,42.125Z" style="fill:white;fill-rule:nonzero;"/>
                <path d="M294.305,33.049C290.506,33.728 284.068,34.878 284.068,34.878C284.068,34.878 284.106,32.979 283.69,24.756C283.337,17.768 278.309,17.185 275.227,17.735L269.218,44.716L273.129,66.614L278.767,67.105C281.356,67.331 283.965,67.214 286.524,66.757L293.821,65.454C296.672,64.945 298.864,62.643 299.239,59.772C300.281,51.776 301.368,43.45 301.792,40.17C302.514,34.573 298.106,32.37 294.305,33.049Z" style="fill:white;fill-rule:nonzero;"/>
            </g>
        </g>
    </g>
</svg>
